<?xml version="1.0" standalone="no"?>
<!DOCTYPE svg PUBLIC "-//W3C//DTD SVG 20010904//EN"
 "http://www.w3.org/TR/2001/REC-SVG-20010904/DTD/svg10.dtd">
<svg version="1.0" xmlns="http://www.w3.org/2000/svg"
 width="300.000000pt" height="300.000000pt" viewBox="0 0 300.000000 300.000000"
 preserveAspectRatio="xMidYMid meet">
<metadata>
</metadata>
<g transform="translate(0.000000,300.000000) scale(0.100000,-0.100000)"
fill="#FFFFFF" stroke="none">
<path d="M1780 2013 c-133 -23 -252 -101 -372 -242 l-37 -43 -33 25 c-46 34
-125 60 -165 52 -32 -6 -73 -49 -73 -77 0 -8 -9 -23 -20 -33 -11 -10 -20 -29
-20 -42 0 -23 0 -23 20 -3 38 38 62 24 107 -62 41 -79 70 -102 182 -148 42
-17 84 -37 95 -45 18 -13 18 -15 -3 -48 -26 -43 -88 -100 -133 -123 -19 -10
-28 -19 -20 -22 7 -2 47 13 89 34 75 38 77 41 96 94 14 41 16 59 8 72 -15 24
-14 38 4 38 19 0 31 -25 38 -80 4 -25 10 -60 16 -77 11 -38 -1 -52 -27 -31
-30 25 -50 15 -108 -56 -53 -64 -54 -67 -24 -50 19 11 54 38 79 61 24 24 46
41 48 39 6 -5 -37 -115 -48 -121 -5 -4 -9 -11 -9 -16 0 -18 18 1 59 62 43 64
51 61 26 -11 -17 -47 -14 -65 5 -30 57 106 65 233 23 362 -33 101 -42 79 -14
-34 12 -45 20 -105 20 -132 l-1 -51 -8 48 c-9 50 -38 116 -69 156 l-18 24 -7
-43 c-8 -48 -17 -44 -36 15 l-13 40 -11 -32 c-15 -44 -23 -48 -30 -19 -4 17
-11 23 -21 20 -8 -4 -27 -3 -41 0 l-27 7 42 30 c22 17 41 33 41 36 0 2 -13 -5
-29 -16 -33 -24 -64 -27 -83 -8 -7 7 -21 16 -30 20 -20 7 -24 46 -5 48 6 1 -1
4 -17 8 -17 3 -29 11 -29 16 0 6 -8 22 -19 38 l-19 27 28 0 c16 0 33 -4 39 -9
5 -5 20 -12 34 -15 16 -4 11 1 -15 15 -25 14 -58 23 -87 23 l-47 0 17 29 c23
38 47 50 91 43 37 -6 141 -47 141 -56 0 -3 -16 -22 -36 -43 -20 -21 -34 -40
-32 -42 5 -5 138 123 208 199 50 54 87 84 143 115 57 32 67 25 13 -9 -86 -55
-203 -182 -240 -260 -4 -8 1 -4 11 10 10 14 35 44 57 68 21 23 35 42 30 42 -5
0 9 12 31 26 22 15 58 44 80 64 61 58 121 90 192 105 36 8 68 16 71 19 6 7
-69 6 -108 -1z"/>
<path d="M1765 1959 c-4 -6 -1 -10 6 -8 26 3 39 -1 37 -12 -3 -13 23 -20 74
-20 20 1 49 -4 63 -9 19 -7 25 -6 25 4 0 34 -187 75 -205 45z"/>
<path d="M1790 1891 c0 -5 9 -13 20 -16 18 -6 21 -11 19 -32 0 -5 103 -42 120
-43 12 0 -38 43 -73 64 -51 29 -86 41 -86 27z"/>
<path d="M1790 1823 c46 -17 73 -81 30 -70 -11 3 -20 2 -20 -1 0 -4 37 -20 83
-37 45 -16 87 -32 92 -34 6 -2 -15 22 -45 54 -53 54 -115 96 -142 94 -9 0 -8
-2 2 -6z"/>
<path d="M1730 1743 c24 -9 60 -45 60 -61 0 -12 -4 -12 -24 2 -17 10 -32 13
-46 8 -19 -7 -15 -11 31 -32 29 -14 78 -40 108 -58 29 -18 55 -31 57 -29 2 2
-12 26 -31 54 -44 66 -106 118 -142 120 -15 1 -21 -1 -13 -4z"/>
<path d="M1573 1652 c31 -34 10 -60 -23 -29 -7 6 -4 -4 7 -23 32 -56 62 -113
75 -145 12 -30 13 -30 16 24 5 78 -23 157 -61 176 -29 14 -29 14 -14 -3z"/>
<path d="M1696 1645 c7 -27 6 -29 -9 -17 -9 8 -25 12 -37 10 -17 -2 -7 -16 60
-80 44 -42 80 -74 80 -70 -1 36 -51 141 -80 167 l-21 19 7 -29z"/>
</g>
</svg>
